<svg xmlns="http://www.w3.org/2000/svg" viewBox="0 0 535 350" aria-hidden="true"><line x1="57" y1="253.375" x2="510" y2="253.375" stroke="#d8e1e9" stroke-width="1"></line><text x="48" y="257.375" fill="#596d80" font-family="Arial,Helvetica,sans-serif" font-size="11" text-anchor="end">0.03125</text><line x1="57" y1="188.125" x2="510" y2="188.125" stroke="#d8e1e9" stroke-width="1"></line><text x="48" y="192.125" fill="#596d80" font-family="Arial,Helvetica,sans-serif" font-size="11" text-anchor="end">0.125</text><line x1="57" y1="122.875" x2="510" y2="122.875" stroke="#d8e1e9" stroke-width="1"></line><text x="48" y="126.875" fill="#596d80" font-family="Arial,Helvetica,sans-serif" font-size="11" text-anchor="end">0.5</text><line x1="57" y1="57.625" x2="510" y2="57.625" stroke="#d8e1e9" stroke-width="1"></line><text x="48" y="61.625" fill="#596d80" font-family="Arial,Helvetica,sans-serif" font-size="11" text-anchor="end">2</text><line x1="57" y1="25" x2="510" y2="25" stroke="#d8e1e9" stroke-width="1"></line><text x="48" y="29" fill="#596d80" font-family="Arial,Helvetica,sans-serif" font-size="11" text-anchor="end">4</text><text x="57" y="307" fill="#596d80" font-family="Arial,Helvetica,sans-serif" font-size="12" text-anchor="middle">1</text><text x="186.42857142857142" y="307" fill="#596d80" font-family="Arial,Helvetica,sans-serif" font-size="12" text-anchor="middle">4</text><text x="315.85714285714283" y="307" fill="#596d80" font-family="Arial,Helvetica,sans-serif" font-size="12" text-anchor="middle">16</text><text x="445.2857142857143" y="307" fill="#596d80" font-family="Arial,Helvetica,sans-serif" font-size="12" text-anchor="middle">64</text><text x="510" y="307" fill="#596d80" font-family="Arial,Helvetica,sans-serif" font-size="12" text-anchor="middle">128</text><path d="M57.00,25.00 L59.28,26.15 L61.55,27.30 L63.83,28.44 L66.11,29.59 L68.38,30.74 L70.66,31.89 L72.93,33.03 L75.21,34.18 L77.49,35.33 L79.76,36.48 L82.04,37.62 L84.32,38.77 L86.59,39.92 L88.87,41.07 L91.15,42.21 L93.42,43.36 L95.70,44.51 L97.97,45.66 L100.25,46.80 L102.53,47.95 L104.80,49.10 L107.08,50.25 L109.36,51.40 L111.63,52.54 L113.91,53.69 L116.19,54.84 L118.46,55.99 L120.74,57.13 L123.02,58.28 L125.29,59.43 L127.57,60.58 L129.84,61.72 L132.12,62.87 L134.40,64.02 L136.67,65.17 L138.95,66.31 L141.23,67.46 L143.50,68.61 L145.78,69.76 L148.06,70.90 L150.33,72.05 L152.61,73.20 L154.88,74.35 L157.16,75.49 L159.44,76.64 L161.71,77.79 L163.99,78.94 L166.27,80.09 L168.54,81.23 L170.82,82.38 L173.10,83.53 L175.37,84.68 L177.65,85.82 L179.92,86.97 L182.20,88.12 L184.48,89.27 L186.75,90.41 L189.03,91.56 L191.31,92.71 L193.58,93.86 L195.86,95.00 L198.14,96.15 L200.41,97.30 L202.69,98.45 L204.96,99.59 L207.24,100.74 L209.52,101.89 L211.79,103.04 L214.07,104.19 L216.35,105.33 L218.62,106.48 L220.90,107.63 L223.18,108.78 L225.45,109.92 L227.73,111.07 L230.01,112.22 L232.28,113.37 L234.56,114.51 L236.83,115.66 L239.11,116.81 L241.39,117.96 L243.66,119.10 L245.94,120.25 L248.22,121.40 L250.49,122.55 L252.77,123.69 L255.05,124.84 L257.32,125.99 L259.60,127.14 L261.87,128.29 L264.15,129.43 L266.43,130.58 L268.70,131.73 L270.98,132.88 L273.26,134.02 L275.53,135.17 L277.81,136.32 L280.09,137.47 L282.36,138.61 L284.64,139.76 L286.91,140.91 L289.19,142.06 L291.47,143.20 L293.74,144.35 L296.02,145.50 L298.30,146.65 L300.57,147.79 L302.85,148.94 L305.13,150.09 L307.40,151.24 L309.68,152.39 L311.95,153.53 L314.23,154.68 L316.51,155.83 L318.78,156.98 L321.06,158.12 L323.34,159.27 L325.61,160.42 L327.89,161.57 L330.17,162.71 L332.44,163.86 L334.72,165.01 L336.99,166.16 L339.27,167.30 L341.55,168.45 L343.82,169.60 L346.10,170.75 L348.38,171.89 L350.65,173.04 L352.93,174.19 L355.21,175.34 L357.48,176.48 L359.76,177.63 L362.04,178.78 L364.31,179.93 L366.59,181.08 L368.86,182.22 L371.14,183.37 L373.42,184.52 L375.69,185.67 L377.97,186.81 L380.25,187.96 L382.52,189.11 L384.80,190.26 L387.08,191.40 L389.35,192.55 L391.63,193.70 L393.90,194.85 L396.18,195.99 L398.46,197.14 L400.73,198.29 L403.01,199.44 L405.29,200.58 L407.56,201.73 L409.84,202.88 L412.12,204.03 L414.39,205.18 L416.67,206.32 L418.94,207.47 L421.22,208.62 L423.50,209.77 L425.77,210.91 L428.05,212.06 L430.33,213.21 L432.60,214.36 L434.88,215.50 L437.16,216.65 L439.43,217.80 L441.71,218.95 L443.98,220.09 L446.26,221.24 L448.54,222.39 L450.81,223.54 L453.09,224.68 L455.37,225.83 L457.64,226.98 L459.92,228.13 L462.20,229.28 L464.47,230.42 L466.75,231.57 L469.03,232.72 L471.30,233.87 L473.58,235.01 L475.85,236.16 L478.13,237.31 L480.41,238.46 L482.68,239.60 L484.96,240.75 L487.24,241.90 L489.51,243.05 L491.79,244.19 L494.07,245.34 L496.34,246.49 L498.62,247.64 L500.89,248.78 L503.17,249.93 L505.45,251.08 L507.72,252.23 L510.00,253.38" stroke="#087f68" stroke-width="3" fill="none" stroke-linejoin="round"></path><path d="M57.00,57.63 L59.28,58.20 L61.55,58.77 L63.83,59.35 L66.11,59.92 L68.38,60.49 L70.66,61.07 L72.93,61.64 L75.21,62.22 L77.49,62.79 L79.76,63.36 L82.04,63.94 L84.32,64.51 L86.59,65.08 L88.87,65.66 L91.15,66.23 L93.42,66.81 L95.70,67.38 L97.97,67.95 L100.25,68.53 L102.53,69.10 L104.80,69.67 L107.08,70.25 L109.36,70.82 L111.63,71.40 L113.91,71.97 L116.19,72.54 L118.46,73.12 L120.74,73.69 L123.02,74.27 L125.29,74.84 L127.57,75.41 L129.84,75.99 L132.12,76.56 L134.40,77.13 L136.67,77.71 L138.95,78.28 L141.23,78.86 L143.50,79.43 L145.78,80.00 L148.06,80.58 L150.33,81.15 L152.61,81.72 L154.88,82.30 L157.16,82.87 L159.44,83.45 L161.71,84.02 L163.99,84.59 L166.27,85.17 L168.54,85.74 L170.82,86.32 L173.10,86.89 L175.37,87.46 L177.65,88.04 L179.92,88.61 L182.20,89.18 L184.48,89.76 L186.75,90.33 L189.03,90.91 L191.31,91.48 L193.58,92.05 L195.86,92.63 L198.14,93.20 L200.41,93.77 L202.69,94.35 L204.96,94.92 L207.24,95.50 L209.52,96.07 L211.79,96.64 L214.07,97.22 L216.35,97.79 L218.62,98.37 L220.90,98.94 L223.18,99.51 L225.45,100.09 L227.73,100.66 L230.01,101.23 L232.28,101.81 L234.56,102.38 L236.83,102.96 L239.11,103.53 L241.39,104.10 L243.66,104.68 L245.94,105.25 L248.22,105.82 L250.49,106.40 L252.77,106.97 L255.05,107.55 L257.32,108.12 L259.60,108.69 L261.87,109.27 L264.15,109.84 L266.43,110.42 L268.70,110.99 L270.98,111.56 L273.26,112.14 L275.53,112.71 L277.81,113.28 L280.09,113.86 L282.36,114.43 L284.64,115.01 L286.91,115.58 L289.19,116.15 L291.47,116.73 L293.74,117.30 L296.02,117.87 L298.30,118.45 L300.57,119.02 L302.85,119.60 L305.13,120.17 L307.40,120.74 L309.68,121.32 L311.95,121.89 L314.23,122.47 L316.51,123.04 L318.78,123.61 L321.06,124.19 L323.34,124.76 L325.61,125.33 L327.89,125.91 L330.17,126.48 L332.44,127.06 L334.72,127.63 L336.99,128.20 L339.27,128.78 L341.55,129.35 L343.82,129.92 L346.10,130.50 L348.38,131.07 L350.65,131.65 L352.93,132.22 L355.21,132.79 L357.48,133.37 L359.76,133.94 L362.04,134.52 L364.31,135.09 L366.59,135.66 L368.86,136.24 L371.14,136.81 L373.42,137.38 L375.69,137.96 L377.97,138.53 L380.25,139.11 L382.52,139.68 L384.80,140.25 L387.08,140.83 L389.35,141.40 L391.63,141.97 L393.90,142.55 L396.18,143.12 L398.46,143.70 L400.73,144.27 L403.01,144.84 L405.29,145.42 L407.56,145.99 L409.84,146.57 L412.12,147.14 L414.39,147.71 L416.67,148.29 L418.94,148.86 L421.22,149.43 L423.50,150.01 L425.77,150.58 L428.05,151.16 L430.33,151.73 L432.60,152.30 L434.88,152.88 L437.16,153.45 L439.43,154.02 L441.71,154.60 L443.98,155.17 L446.26,155.75 L448.54,156.32 L450.81,156.89 L453.09,157.47 L455.37,158.04 L457.64,158.61 L459.92,159.19 L462.20,159.76 L464.47,160.34 L466.75,160.91 L469.03,161.48 L471.30,162.06 L473.58,162.63 L475.85,163.21 L478.13,163.78 L480.41,164.35 L482.68,164.93 L484.96,165.50 L487.24,166.07 L489.51,166.65 L491.79,167.22 L494.07,167.80 L496.34,168.37 L498.62,168.94 L500.89,169.52 L503.17,170.09 L505.45,170.66 L507.72,171.24 L510.00,171.81" stroke="#b96815" stroke-width="3" fill="none" stroke-linejoin="round"></path><circle cx="186.42857142857142" cy="90.25" r="4" fill="#087f68" stroke="none" stroke-width="1"></circle><circle cx="186.42857142857142" cy="90.25" r="4" fill="#b96815" stroke="none" stroke-width="1"></circle><circle cx="315.85714285714283" cy="155.5" r="4" fill="#087f68" stroke="none" stroke-width="1"></circle><circle cx="315.85714285714283" cy="122.875" r="4" fill="#b96815" stroke="none" stroke-width="1"></circle><circle cx="445.2857142857143" cy="220.75" r="4" fill="#087f68" stroke="none" stroke-width="1"></circle><circle cx="445.2857142857143" cy="155.5" r="4" fill="#b96815" stroke="none" stroke-width="1"></circle><text x="57" y="12" fill="#596d80" font-family="Arial,Helvetica,sans-serif" font-size="12" text-anchor="start">Bound · log scale</text><text x="283.5" y="344" fill="#596d80" font-family="Arial,Helvetica,sans-serif" font-size="12" text-anchor="middle">Independent samples n · log scale</text><text x="310" y="93" fill="#b96815" font-family="Arial,Helvetica,sans-serif" font-size="16" text-anchor="start">SD: 2 / √n</text><text x="310" y="223" fill="#087f68" font-family="Arial,Helvetica,sans-serif" font-size="16" text-anchor="start">Variance: 4 / n</text></svg>
